<svg width="current" height="current" viewBox="0 0 21 21" fill="current" xmlns="http://www.w3.org/2000/svg">
<path d="M7.87505 8.92855C5.46266 8.92855 3.5 6.92599 3.5 4.46436C3.5 2.00272 5.46266 0 7.87505 0C10.2874 0 12.2501 2.00272 12.2501 4.46436C12.2501 6.92599 10.2874 8.92855 7.87505 8.92855V8.92855ZM7.87505 1.33929C6.18636 1.33929 4.8125 2.74103 4.8125 4.46436C4.8125 6.18752 6.18636 7.58926 7.87505 7.58926C9.56374 7.58926 10.9376 6.18752 10.9376 4.46436C10.9376 2.74103 9.56374 1.33929 7.87505 1.33929V1.33929Z" fill="current"/>
<path d="M19.4688 20.5353H14.6562C13.8119 20.5353 13.125 19.8344 13.125 18.9727V15.8478C13.125 14.986 13.8119 14.2852 14.6562 14.2852H19.4688C20.3131 14.2852 21 14.986 21 15.8478V18.9727C21 19.8344 20.3131 20.5353 19.4688 20.5353V20.5353ZM14.6562 15.6244C14.5356 15.6244 14.4375 15.7245 14.4375 15.8478V18.9727C14.4375 19.0959 14.5356 19.196 14.6562 19.196H19.4688C19.5894 19.196 19.6875 19.0959 19.6875 18.9727V15.8478C19.6875 15.7245 19.5894 15.6244 19.4688 15.6244H14.6562Z" fill="current"/>
<path d="M18.5936 15.6245H15.5312C15.169 15.6245 14.875 15.3245 14.875 14.9549V12.946C14.875 11.7157 15.8567 10.7139 17.0624 10.7139C18.2682 10.7139 19.2499 11.7157 19.2499 12.946V14.9549C19.2499 15.3245 18.9559 15.6245 18.5936 15.6245V15.6245ZM16.1875 14.2853H17.9374V12.946C17.9374 12.454 17.5445 12.0532 17.0624 12.0532C16.5804 12.0532 16.1875 12.454 16.1875 12.946V14.2853Z" fill="current"/>
<path d="M10.9376 18.7496H0.65625C0.293999 18.7496 0 18.4496 0 18.08V14.9549C0 12.6165 1.86461 10.7139 4.1562 10.7139H11.8125C12.5441 10.7139 13.2641 10.9112 13.8942 11.2853C14.2074 11.471 14.3132 11.8808 14.1313 12.2005C13.9493 12.5211 13.5477 12.6281 13.2335 12.4424C12.8039 12.188 12.3121 12.0532 11.8125 12.0532H4.1562C2.58831 12.0532 1.3125 13.355 1.3125 14.9549V17.4103H10.9376C11.2998 17.4103 11.5938 17.7103 11.5938 18.08C11.5938 18.4496 11.2998 18.7496 10.9376 18.7496V18.7496Z" fill="current"/>
</svg>
