<svg width="20" height="21" viewBox="0 0 20 21" fill="current" xmlns="http://www.w3.org/2000/svg">
<path d="M19.4294 8.45181C19.2975 7.88047 19.1305 7.32672 18.902 6.79933C17.6187 3.79321 14.8499 1.56939 11.5185 1.042C11.0263 0.962895 10.5253 0.910156 10.0067 0.910156C9.83967 0.910156 9.67267 0.927736 9.50566 0.936526C5.7612 1.1299 2.5705 3.4592 1.13776 6.72901C0.900438 7.26519 0.724642 7.82774 0.584005 8.40786C0.434579 9.10226 0.337891 9.83181 0.337891 10.5789H2.09585C2.09585 9.94608 2.18375 9.322 2.32439 8.73309C4.89101 9.18137 8.38057 9.65602 11.7998 9.65602C11.9229 9.65602 12.0371 9.64723 12.1514 9.64723C12.2657 10.8514 12.2657 12.1172 12.1074 13.4093C8.75853 13.3917 5.42719 13.8224 2.99241 14.2355C2.6584 13.5939 2.4035 12.8995 2.25407 12.1611L0.531266 12.5127C0.680693 13.2335 0.909228 13.9191 1.20808 14.5695C1.47178 15.1409 1.77942 15.6858 2.1398 16.1868C3.82744 18.5425 6.5435 20.0895 9.5584 20.2302C9.70783 20.2389 9.85725 20.2477 10.0067 20.2477C10.5956 20.2477 11.1581 20.1862 11.7207 20.0895C14.384 19.6149 16.6694 18.0503 18.0933 15.8704C18.4185 15.3694 18.6998 14.842 18.9371 14.2882C19.4118 13.1456 19.6755 11.8886 19.6755 10.5789C19.6755 9.84939 19.5876 9.13742 19.4294 8.45181ZM2.93088 7.05423C4.23178 4.46124 6.91267 2.66812 10.0067 2.66812C10.1209 2.66812 10.2264 2.67691 10.3407 2.6857C10.9032 3.99538 11.5361 5.79729 11.9141 7.88048C8.86401 7.88926 5.61178 7.5113 2.93088 7.05423ZM10.6044 18.4634C10.4022 18.4722 10.2088 18.4898 10.0067 18.4898C7.69496 18.4898 5.57662 17.4789 4.10872 15.844C6.29738 15.5012 9.04859 15.1848 11.7998 15.1672C11.5449 16.266 11.1494 17.3647 10.6044 18.4634ZM17.2143 7.3443C16.142 7.60799 14.9378 7.76621 13.672 7.83653C13.3644 5.99946 12.8634 4.35576 12.3623 3.0285C14.5334 3.70532 16.2914 5.29627 17.2143 7.3443ZM12.7403 17.9888C13.1183 17.057 13.3908 16.1253 13.5841 15.2024C14.4807 15.2463 15.3597 15.3342 16.2035 15.4661C15.3157 16.6 14.1203 17.4789 12.7403 17.9888ZM13.8654 13.462C14.0148 12.126 14.006 10.8251 13.9006 9.57691C15.2542 9.48901 16.5639 9.31321 17.7593 9.00557C17.8648 9.51538 17.9175 10.0428 17.9175 10.5789C17.9175 11.748 17.6538 12.8555 17.1967 13.8575C16.1244 13.6466 15.0081 13.5235 13.8654 13.462Z" fill="current"/>
</svg>
