<svg width="16" height="16" viewBox="0 0 16 16" fill="current" xmlns="http://www.w3.org/2000/svg">
<path d="M15.7964 6.24C15.6873 5.76727 15.5491 5.30909 15.36 4.87273C14.2982 2.38545 12.0073 0.545455 9.25091 0.109091C8.84364 0.0436364 8.42909 0 8 0C7.86182 0 7.72364 0.0145456 7.58545 0.0218183C4.48727 0.181818 1.84727 2.10909 0.661818 4.81455C0.465454 5.25818 0.32 5.72364 0.203637 6.20364C0.0800002 6.77818 0 7.38182 0 8H1.45455C1.45455 7.47636 1.52727 6.96 1.64364 6.47273C3.76727 6.84364 6.65455 7.23636 9.48364 7.23636C9.58546 7.23636 9.68 7.22909 9.77455 7.22909C9.86909 8.22545 9.86909 9.27273 9.73818 10.3418C6.96727 10.3273 4.21091 10.6836 2.19636 11.0255C1.92 10.4945 1.70909 9.92 1.58545 9.30909L0.16 9.6C0.283636 10.1964 0.472727 10.7636 0.72 11.3018C0.938182 11.7745 1.19273 12.2255 1.49091 12.64C2.88727 14.5891 5.13455 15.8691 7.62909 15.9855C7.75273 15.9927 7.87636 16 8 16C8.48727 16 8.95273 15.9491 9.41818 15.8691C11.6218 15.4764 13.5127 14.1818 14.6909 12.3782C14.96 11.9636 15.1927 11.5273 15.3891 11.0691C15.7818 10.1236 16 9.08364 16 8C16 7.39636 15.9273 6.80727 15.7964 6.24ZM2.14545 5.08364C3.22182 2.93818 5.44 1.45455 8 1.45455C8.09455 1.45455 8.18182 1.46182 8.27636 1.46909C8.74182 2.55273 9.26546 4.04364 9.57818 5.76727C7.05455 5.77455 4.36364 5.46182 2.14545 5.08364ZM8.49455 14.5236C8.32727 14.5309 8.16727 14.5455 8 14.5455C6.08727 14.5455 4.33455 13.7091 3.12 12.3564C4.93091 12.0727 7.20727 11.8109 9.48364 11.7964C9.27273 12.7055 8.94545 13.6145 8.49455 14.5236ZM13.9636 5.32364C13.0764 5.54182 12.08 5.67273 11.0327 5.73091C10.7782 4.21091 10.3636 2.85091 9.94909 1.75273C11.7455 2.31273 13.2 3.62909 13.9636 5.32364ZM10.2618 14.1309C10.5745 13.36 10.8 12.5891 10.96 11.8255C11.7018 11.8618 12.4291 11.9345 13.1273 12.0436C12.3927 12.9818 11.4036 13.7091 10.2618 14.1309ZM11.1927 10.3855C11.3164 9.28 11.3091 8.20364 11.2218 7.17091C12.3418 7.09818 13.4255 6.95273 14.4145 6.69818C14.5018 7.12 14.5455 7.55636 14.5455 8C14.5455 8.96727 14.3273 9.88364 13.9491 10.7127C13.0618 10.5382 12.1382 10.4364 11.1927 10.3855Z" fill="current"/>
</svg>
