<svg width="21" height="20" viewBox="0 0 21 20" fill="current" xmlns="http://www.w3.org/2000/svg">
<path d="M18.7416 4.9639C17.877 3.48251 16.7042 2.30968 15.223 1.44517C13.7415 0.580607 12.1241 0.148438 10.3698 0.148438C8.61569 0.148438 6.99782 0.580739 5.51664 1.44517C4.03524 2.30964 2.86251 3.48251 1.9979 4.9639C1.13343 6.44526 0.701172 8.06291 0.701172 9.81681C0.701172 11.9236 1.31585 13.8182 2.54551 15.5008C3.77504 17.1837 5.36341 18.3481 7.31049 18.9943C7.53714 19.0364 7.70492 19.0068 7.814 18.9063C7.92314 18.8057 7.97764 18.6797 7.97764 18.5288C7.97764 18.5036 7.97548 18.2771 7.97129 17.849C7.96697 17.4209 7.96494 17.0474 7.96494 16.7287L7.67537 16.7788C7.49075 16.8126 7.25784 16.8269 6.97665 16.8229C6.69559 16.819 6.40382 16.7895 6.10173 16.7347C5.79951 16.6805 5.5184 16.5546 5.2582 16.3573C4.99813 16.1601 4.81351 15.9019 4.70438 15.5832L4.57849 15.2935C4.49457 15.1006 4.36247 14.8864 4.18199 14.6515C4.00151 14.4165 3.819 14.2571 3.63438 14.1732L3.54623 14.1101C3.4875 14.0682 3.433 14.0176 3.3826 13.9589C3.33224 13.9002 3.29454 13.8415 3.26937 13.7827C3.24414 13.7238 3.26504 13.6755 3.33229 13.6376C3.39953 13.5998 3.52106 13.5814 3.69739 13.5814L3.94908 13.619C4.11695 13.6526 4.32459 13.7531 4.57227 13.9211C4.81981 14.0889 5.02331 14.3071 5.1828 14.5755C5.37593 14.9197 5.60862 15.182 5.88152 15.3625C6.1542 15.543 6.42913 15.633 6.70604 15.633C6.98296 15.633 7.22212 15.6121 7.42364 15.5703C7.62493 15.5283 7.81378 15.4652 7.99012 15.3814C8.06565 14.8188 8.27131 14.3866 8.60691 14.0845C8.12857 14.0343 7.69852 13.9586 7.31653 13.8579C6.93476 13.7571 6.54025 13.5935 6.13326 13.3667C5.72604 13.1402 5.38824 12.8589 5.11975 12.5233C4.85121 12.1876 4.63083 11.7468 4.4589 11.2014C4.28689 10.6558 4.20086 10.0264 4.20086 9.31303C4.20086 8.29731 4.53245 7.43297 5.1955 6.71953C4.8849 5.9559 4.91422 5.09985 5.28356 4.15146C5.52696 4.07584 5.88791 4.13259 6.36625 4.32136C6.84468 4.51022 7.19496 4.672 7.41746 4.80614C7.63996 4.94023 7.81824 5.05386 7.95255 5.14602C8.73324 4.92788 9.53889 4.81879 10.3697 4.81879C11.2005 4.81879 12.0064 4.92788 12.7871 5.14602L13.2655 4.84401C13.5926 4.6425 13.9789 4.45783 14.4235 4.28997C14.8683 4.12219 15.2085 4.07597 15.4436 4.1516C15.8211 5.10002 15.8548 5.95603 15.5441 6.71966C16.2071 7.43311 16.5388 8.29767 16.5388 9.31316C16.5388 10.0265 16.4525 10.6579 16.2807 11.2077C16.1087 11.7576 15.8865 12.198 15.6138 12.5296C15.3408 12.8613 15.0008 13.1403 14.5938 13.3668C14.1868 13.5935 13.7921 13.757 13.4103 13.8578C13.0284 13.9586 12.5983 14.0344 12.12 14.0848C12.5563 14.4623 12.7745 15.0582 12.7745 15.8723V18.5284C12.7745 18.6793 12.8269 18.8053 12.932 18.906C13.0369 19.0064 13.2025 19.036 13.4292 18.9939C15.3765 18.3478 16.9649 17.1833 18.1944 15.5005C19.4237 13.8178 20.0386 11.9233 20.0386 9.81645C20.0382 8.06277 19.6057 6.44526 18.7416 4.9639Z" fill="current"/>
</svg>
