<svg width="current" height="current" viewBox="0 0 21 23" fill="current" xmlns="http://www.w3.org/2000/svg">
<path d="M17.8265 14.4236C17.5263 14.4236 17.282 14.1671 17.282 13.8518V9.81306C17.282 6.62441 15.2757 3.91859 12.5189 3.01416C12.6018 2.77183 12.6456 2.51456 12.6456 2.2528C12.6456 1.01062 11.6831 0 10.5 0C9.31691 0 8.35446 1.01062 8.35446 2.25284C8.35446 2.51664 8.39737 2.77352 8.47971 3.01468C5.72369 3.91955 3.71801 6.62497 3.71801 9.81311V13.8519C3.71801 14.1671 3.47374 14.4236 3.17352 14.4236C1.97286 14.4236 0.996094 15.4493 0.996094 16.7099C0.996094 17.9706 1.97286 18.9962 3.17352 18.9962H8.25308C8.20402 19.195 8.17833 19.4015 8.17833 19.6123C8.17833 20.9565 9.21986 22.05 10.5 22.05C11.7802 22.05 12.8217 20.9565 12.8217 19.6123C12.8217 19.4015 12.796 19.195 12.7469 18.9962H17.8265C19.0271 18.9962 20.0039 17.9706 20.0039 16.7099C20.004 15.4492 19.0272 14.4236 17.8265 14.4236V14.4236ZM9.59128 2.25284C9.59128 1.72671 9.99894 1.29867 10.5 1.29867C11.0011 1.29867 11.4088 1.72671 11.4088 2.25284C11.4088 2.42534 11.3643 2.59326 11.2816 2.73958C11.0251 2.70854 10.7644 2.692 10.5 2.692C10.236 2.692 9.97552 2.7085 9.71921 2.73949C9.63643 2.59361 9.59128 2.42703 9.59128 2.25284ZM11.5849 19.6122C11.5849 20.2404 11.0982 20.7513 10.5001 20.7513C9.90189 20.7513 9.4152 20.2404 9.4152 19.6122C9.4152 19.3903 9.47547 19.1783 9.58741 18.9962H11.4127C11.5246 19.1783 11.5849 19.3903 11.5849 19.6122ZM17.8265 17.6975H3.17352C2.65488 17.6975 2.23292 17.2545 2.23292 16.7099C2.23292 16.1653 2.65488 15.7223 3.17352 15.7223C4.15573 15.7223 4.95484 14.8832 4.95484 13.8518V9.81306C4.95484 6.60255 7.44238 3.99063 10.5 3.99063C13.5577 3.99063 16.0452 6.60255 16.0452 9.81306V13.8518C16.0452 14.8832 16.8443 15.7223 17.8265 15.7223C18.3452 15.7223 18.7671 16.1653 18.7671 16.7099C18.7672 17.2545 18.3452 17.6975 17.8265 17.6975V17.6975Z" fill="current"/>
</svg>
