<svg width="20" height="17" viewBox="0 0 20 17" fill="current" xmlns="http://www.w3.org/2000/svg">
<path d="M0.73054 14.7416C2.83048 14.9305 4.72269 14.4017 6.44495 13.11C4.64338 12.9514 3.43856 12.0525 2.76627 10.368C3.35547 10.4398 3.90689 10.4586 4.4923 10.3C2.55099 9.69571 1.51613 8.42668 1.37638 6.37962C1.95802 6.65155 2.50567 6.84795 3.15151 6.8555C1.99957 5.9906 1.41038 4.86887 1.43304 3.45632C1.44437 2.8067 1.6181 2.19484 1.9618 1.61698C4.09573 4.11349 6.77353 5.49583 10.0707 5.72622C10.0519 5.5827 10.0405 5.46939 10.0254 5.35231C9.75348 3.25992 11.1132 1.35638 13.1904 0.959806C14.4935 0.710533 15.6454 1.05423 16.6198 1.95312C16.7709 2.08909 16.8993 2.11931 17.0882 2.07021C17.8473 1.87759 18.5687 1.5981 19.2674 1.22041C18.9993 2.1042 18.4478 2.76893 17.7 3.3279C17.87 3.29769 18.0437 3.27503 18.2137 3.24104C18.3912 3.20327 18.5687 3.16172 18.7462 3.11262C18.9162 3.0673 19.0824 3.01442 19.2485 2.95777C19.4185 2.90112 19.5885 2.83691 19.7886 2.80292C19.6904 2.93889 19.596 3.08241 19.4903 3.2146C19.0521 3.7698 18.546 4.25701 17.9908 4.69135C17.9342 4.73668 17.8851 4.83488 17.8889 4.90286C17.9191 6.24365 17.7302 7.55045 17.2959 8.81948C16.4423 11.3198 14.9542 13.3442 12.7221 14.7907C11.6193 15.5045 10.4144 15.9729 9.12652 16.2448C7.84994 16.513 6.56581 16.5621 5.27789 16.411C3.9862 16.2599 2.75872 15.8784 1.603 15.2817C1.29707 15.1268 1.00247 14.9531 0.704102 14.7869C0.715432 14.7718 0.722986 14.7567 0.73054 14.7416Z" fill="current"/>
</svg>
