<svg width="current" height="current" viewBox="0 0 157 157" fill="current" xmlns="http://www.w3.org/2000/svg">
<path d="M78.5 156.906C62.9927 156.906 47.8337 152.308 34.9399 143.692C22.046 135.077 11.9965 122.832 6.06211 108.505C0.127722 94.1779 -1.42498 78.4131 1.60034 63.2037C4.62566 47.9944 12.0931 34.0238 23.0584 23.0584C34.0238 12.0931 47.9944 4.62566 63.2037 1.60034C78.4131 -1.42498 94.1779 0.127722 108.505 6.06211C122.832 11.9965 135.077 22.046 143.692 34.9399C152.308 47.8337 156.906 62.9927 156.906 78.5C156.906 99.2947 148.646 119.238 133.942 133.942C119.238 148.646 99.2947 156.906 78.5 156.906V156.906ZM78.5 12.1563C65.3785 12.1563 52.5516 16.0473 41.6414 23.3372C30.7312 30.6272 22.2278 40.9886 17.2064 53.1114C12.185 65.2341 10.8712 78.5736 13.4311 91.4431C15.9909 104.312 22.3096 116.134 31.5879 125.412C40.8663 134.69 52.6876 141.009 65.557 143.569C78.4264 146.129 91.766 144.815 103.889 139.794C116.011 134.772 126.373 126.269 133.663 115.359C140.953 104.448 144.844 91.6216 144.844 78.5C144.844 60.9046 137.854 44.0298 125.412 31.5879C112.97 19.1461 96.0955 12.1563 78.5 12.1563Z" fill="current"/>
<path d="M78.5 84.5313C72.5357 84.5313 66.7053 82.7626 61.7461 79.449C56.7869 76.1354 52.9217 71.4256 50.6393 65.9153C48.3568 60.405 47.7596 54.3416 48.9232 48.4918C50.0868 42.6421 52.9589 37.2688 57.1763 33.0513C61.3938 28.8339 66.7671 25.9618 72.6168 24.7982C78.4666 23.6346 84.53 24.2318 90.0403 26.5143C95.5507 28.7967 100.26 32.6619 103.574 37.6211C106.888 42.5803 108.656 48.4107 108.656 54.375C108.656 62.3729 105.479 70.0433 99.8237 75.6987C94.1683 81.3541 86.498 84.5313 78.5 84.5313ZM78.5 36.2813C74.9214 36.2813 71.4232 37.3424 68.4477 39.3306C65.4722 41.3188 63.153 44.1446 61.7836 47.4508C60.4141 50.757 60.0558 54.3951 60.7539 57.9049C61.4521 61.4148 63.1753 64.6388 65.7058 67.1692C68.2363 69.6997 71.4603 71.4229 74.9701 72.1211C78.4799 72.8193 82.118 72.4609 85.4242 71.0915C88.7304 69.722 91.5563 67.4029 93.5444 64.4274C95.5326 61.4519 96.5938 57.9536 96.5938 54.375C96.5938 49.5763 94.6875 44.974 91.2942 41.5808C87.901 38.1876 83.2988 36.2813 78.5 36.2813Z" fill="current"/>
<path d="M136.099 126.75C135.262 126.756 134.432 126.587 133.664 126.255C132.896 125.923 132.205 125.434 131.636 124.82C125.234 117.837 117.453 112.259 108.784 108.439C100.115 104.618 90.7479 102.639 81.2747 102.625H75.7259C58.0677 102.587 41.0877 109.422 28.3806 121.684C27.2066 122.653 25.7096 123.142 24.19 123.053C22.6705 122.964 21.2407 122.304 20.1875 121.205C19.1343 120.106 18.5356 118.649 18.5115 117.127C18.4874 115.606 19.0396 114.131 20.0575 112.999C34.9901 98.5658 54.9583 90.518 75.7259 90.5627H81.2747C92.4097 90.5879 103.419 92.9155 113.612 97.3993C123.804 101.883 132.959 108.426 140.502 116.618C141.298 117.477 141.828 118.55 142.025 119.705C142.222 120.86 142.078 122.048 141.611 123.123C141.144 124.197 140.374 125.113 139.395 125.757C138.416 126.401 137.271 126.746 136.099 126.75V126.75Z" fill="current"/>
</svg>
